<?xml version="1.0" encoding="utf-8" standalone="no"?>
<!DOCTYPE svg PUBLIC "-//W3C//DTD SVG 1.1//EN"
  "http://www.w3.org/Graphics/SVG/1.1/DTD/svg11.dtd">
<svg xmlns:xlink="http://www.w3.org/1999/xlink" width="460.8pt" height="345.6pt" viewBox="0 0 460.8 345.6" xmlns="http://www.w3.org/2000/svg" version="1.1">
 <metadata>
  <rdf:RDF xmlns:dc="http://purl.org/dc/elements/1.1/" xmlns:cc="http://creativecommons.org/ns#" xmlns:rdf="http://www.w3.org/1999/02/22-rdf-syntax-ns#">
   <cc:Work>
    <dc:type rdf:resource="http://purl.org/dc/dcmitype/StillImage"/>
    <dc:date>2022-10-11T07:59:09.837055</dc:date>
    <dc:format>image/svg+xml</dc:format>
    <dc:creator>
     <cc:Agent>
      <dc:title>Matplotlib v3.6.0, https://matplotlib.org/</dc:title>
     </cc:Agent>
    </dc:creator>
   </cc:Work>
  </rdf:RDF>
 </metadata>
 <defs>
  <style type="text/css">*{stroke-linejoin: round; stroke-linecap: butt}</style>
 </defs>
 <g id="figure_1">
  <g id="patch_1">
   <path d="M 0 345.6 
L 460.8 345.6 
L 460.8 0 
L 0 0 
z
" style="fill: #ffffff"/>
  </g>
  <g id="axes_1">
   <g id="patch_2">
    <path d="M 57.6 307.584 
L 414.72 307.584 
L 414.72 41.472 
L 57.6 41.472 
z
" style="fill: #ffffff"/>
   </g>
   <g id="matplotlib.axis_1">
    <g id="xtick_1">
     <g id="line2d_1">
      <defs>
       <path id="mcfc600dd60" d="M 0 0 
L 0 3.5 
" style="stroke: #000000; stroke-width: 0.8"/>
      </defs>
      <g>
       <use xlink:href="#mcfc600dd60" x="57.6" y="307.584" style="stroke: #000000; stroke-width: 0.8"/>
      </g>
     </g>
    </g>
    <g id="xtick_2">
     <g id="line2d_2">
      <g>
       <use xlink:href="#mcfc600dd60" x="65.28" y="307.584" style="stroke: #000000; stroke-width: 0.8"/>
      </g>
     </g>
     <g id="text_1">
      <!-- Nov -->
      <g transform="translate(55.520625 322.182437) scale(0.1 -0.1)">
       <defs>
        <path id="DejaVuSans-4e" d="M 628 4666 
L 1478 4666 
L 3547 763 
L 3547 4666 
L 4159 4666 
L 4159 0 
L 3309 0 
L 1241 3903 
L 1241 0 
L 628 0 
L 628 4666 
z
" transform="scale(0.015625)"/>
        <path id="DejaVuSans-6f" d="M 1959 3097 
Q 1497 3097 1228 2736 
Q 959 2375 959 1747 
Q 959 1119 1226 758 
Q 1494 397 1959 397 
Q 2419 397 2687 759 
Q 2956 1122 2956 1747 
Q 2956 2369 2687 2733 
Q 2419 3097 1959 3097 
z
M 1959 3584 
Q 2709 3584 3137 3096 
Q 3566 2609 3566 1747 
Q 3566 888 3137 398 
Q 2709 -91 1959 -91 
Q 1206 -91 779 398 
Q 353 888 353 1747 
Q 353 2609 779 3096 
Q 1206 3584 1959 3584 
z
" transform="scale(0.015625)"/>
        <path id="DejaVuSans-76" d="M 191 3500 
L 800 3500 
L 1894 563 
L 2988 3500 
L 3597 3500 
L 2284 0 
L 1503 0 
L 191 3500 
z
" transform="scale(0.015625)"/>
       </defs>
       <use xlink:href="#DejaVuSans-4e"/>
       <use xlink:href="#DejaVuSans-6f" x="74.804688"/>
       <use xlink:href="#DejaVuSans-76" x="135.986328"/>
      </g>
     </g>
    </g>
    <g id="xtick_3">
     <g id="line2d_3">
      <g>
       <use xlink:href="#mcfc600dd60" x="180.48" y="307.584" style="stroke: #000000; stroke-width: 0.8"/>
      </g>
     </g>
     <g id="text_2">
      <!-- Dec -->
      <g transform="translate(170.804219 322.182437) scale(0.1 -0.1)">
       <defs>
        <path id="DejaVuSans-44" d="M 1259 4147 
L 1259 519 
L 2022 519 
Q 2988 519 3436 956 
Q 3884 1394 3884 2338 
Q 3884 3275 3436 3711 
Q 2988 4147 2022 4147 
L 1259 4147 
z
M 628 4666 
L 1925 4666 
Q 3281 4666 3915 4102 
Q 4550 3538 4550 2338 
Q 4550 1131 3912 565 
Q 3275 0 1925 0 
L 628 0 
L 628 4666 
z
" transform="scale(0.015625)"/>
        <path id="DejaVuSans-65" d="M 3597 1894 
L 3597 1613 
L 953 1613 
Q 991 1019 1311 708 
Q 1631 397 2203 397 
Q 2534 397 2845 478 
Q 3156 559 3463 722 
L 3463 178 
Q 3153 47 2828 -22 
Q 2503 -91 2169 -91 
Q 1331 -91 842 396 
Q 353 884 353 1716 
Q 353 2575 817 3079 
Q 1281 3584 2069 3584 
Q 2775 3584 3186 3129 
Q 3597 2675 3597 1894 
z
M 3022 2063 
Q 3016 2534 2758 2815 
Q 2500 3097 2075 3097 
Q 1594 3097 1305 2825 
Q 1016 2553 972 2059 
L 3022 2063 
z
" transform="scale(0.015625)"/>
        <path id="DejaVuSans-63" d="M 3122 3366 
L 3122 2828 
Q 2878 2963 2633 3030 
Q 2388 3097 2138 3097 
Q 1578 3097 1268 2742 
Q 959 2388 959 1747 
Q 959 1106 1268 751 
Q 1578 397 2138 397 
Q 2388 397 2633 464 
Q 2878 531 3122 666 
L 3122 134 
Q 2881 22 2623 -34 
Q 2366 -91 2075 -91 
Q 1284 -91 818 406 
Q 353 903 353 1747 
Q 353 2603 823 3093 
Q 1294 3584 2113 3584 
Q 2378 3584 2631 3529 
Q 2884 3475 3122 3366 
z
" transform="scale(0.015625)"/>
       </defs>
       <use xlink:href="#DejaVuSans-44"/>
       <use xlink:href="#DejaVuSans-65" x="77.001953"/>
       <use xlink:href="#DejaVuSans-63" x="138.525391"/>
      </g>
     </g>
    </g>
    <g id="xtick_4">
     <g id="line2d_4">
      <g>
       <use xlink:href="#mcfc600dd60" x="299.52" y="307.584" style="stroke: #000000; stroke-width: 0.8"/>
      </g>
     </g>
     <g id="text_3">
      <!-- Jan -->
      <g transform="translate(291.812188 322.182437) scale(0.1 -0.1)">
       <defs>
        <path id="DejaVuSans-4a" d="M 628 4666 
L 1259 4666 
L 1259 325 
Q 1259 -519 939 -900 
Q 619 -1281 -91 -1281 
L -331 -1281 
L -331 -750 
L -134 -750 
Q 284 -750 456 -515 
Q 628 -281 628 325 
L 628 4666 
z
" transform="scale(0.015625)"/>
        <path id="DejaVuSans-61" d="M 2194 1759 
Q 1497 1759 1228 1600 
Q 959 1441 959 1056 
Q 959 750 1161 570 
Q 1363 391 1709 391 
Q 2188 391 2477 730 
Q 2766 1069 2766 1631 
L 2766 1759 
L 2194 1759 
z
M 3341 1997 
L 3341 0 
L 2766 0 
L 2766 531 
Q 2569 213 2275 61 
Q 1981 -91 1556 -91 
Q 1019 -91 701 211 
Q 384 513 384 1019 
Q 384 1609 779 1909 
Q 1175 2209 1959 2209 
L 2766 2209 
L 2766 2266 
Q 2766 2663 2505 2880 
Q 2244 3097 1772 3097 
Q 1472 3097 1187 3025 
Q 903 2953 641 2809 
L 641 3341 
Q 956 3463 1253 3523 
Q 1550 3584 1831 3584 
Q 2591 3584 2966 3190 
Q 3341 2797 3341 1997 
z
" transform="scale(0.015625)"/>
        <path id="DejaVuSans-6e" d="M 3513 2113 
L 3513 0 
L 2938 0 
L 2938 2094 
Q 2938 2591 2744 2837 
Q 2550 3084 2163 3084 
Q 1697 3084 1428 2787 
Q 1159 2491 1159 1978 
L 1159 0 
L 581 0 
L 581 3500 
L 1159 3500 
L 1159 2956 
Q 1366 3272 1645 3428 
Q 1925 3584 2291 3584 
Q 2894 3584 3203 3211 
Q 3513 2838 3513 2113 
z
" transform="scale(0.015625)"/>
       </defs>
       <use xlink:href="#DejaVuSans-4a"/>
       <use xlink:href="#DejaVuSans-61" x="29.492188"/>
       <use xlink:href="#DejaVuSans-6e" x="90.771484"/>
      </g>
      <!-- 2021 -->
      <g transform="translate(286.795 333.38025) scale(0.1 -0.1)">
       <defs>
        <path id="DejaVuSans-32" d="M 1228 531 
L 3431 531 
L 3431 0 
L 469 0 
L 469 531 
Q 828 903 1448 1529 
Q 2069 2156 2228 2338 
Q 2531 2678 2651 2914 
Q 2772 3150 2772 3378 
Q 2772 3750 2511 3984 
Q 2250 4219 1831 4219 
Q 1534 4219 1204 4116 
Q 875 4013 500 3803 
L 500 4441 
Q 881 4594 1212 4672 
Q 1544 4750 1819 4750 
Q 2544 4750 2975 4387 
Q 3406 4025 3406 3419 
Q 3406 3131 3298 2873 
Q 3191 2616 2906 2266 
Q 2828 2175 2409 1742 
Q 1991 1309 1228 531 
z
" transform="scale(0.015625)"/>
        <path id="DejaVuSans-30" d="M 2034 4250 
Q 1547 4250 1301 3770 
Q 1056 3291 1056 2328 
Q 1056 1369 1301 889 
Q 1547 409 2034 409 
Q 2525 409 2770 889 
Q 3016 1369 3016 2328 
Q 3016 3291 2770 3770 
Q 2525 4250 2034 4250 
z
M 2034 4750 
Q 2819 4750 3233 4129 
Q 3647 3509 3647 2328 
Q 3647 1150 3233 529 
Q 2819 -91 2034 -91 
Q 1250 -91 836 529 
Q 422 1150 422 2328 
Q 422 3509 836 4129 
Q 1250 4750 2034 4750 
z
" transform="scale(0.015625)"/>
        <path id="DejaVuSans-31" d="M 794 531 
L 1825 531 
L 1825 4091 
L 703 3866 
L 703 4441 
L 1819 4666 
L 2450 4666 
L 2450 531 
L 3481 531 
L 3481 0 
L 794 0 
L 794 531 
z
" transform="scale(0.015625)"/>
       </defs>
       <use xlink:href="#DejaVuSans-32"/>
       <use xlink:href="#DejaVuSans-30" x="63.623047"/>
       <use xlink:href="#DejaVuSans-32" x="127.246094"/>
       <use xlink:href="#DejaVuSans-31" x="190.869141"/>
      </g>
     </g>
    </g>
    <g id="xtick_5">
     <g id="line2d_5">
      <g>
       <use xlink:href="#mcfc600dd60" x="414.72" y="307.584" style="stroke: #000000; stroke-width: 0.8"/>
      </g>
     </g>
    </g>
    <g id="xtick_6">
     <g id="line2d_6">
      <defs>
       <path id="m08c82ef862" d="M 0 0 
L 0 2 
" style="stroke: #000000; stroke-width: 0.6"/>
      </defs>
      <g>
       <use xlink:href="#m08c82ef862" x="69.12" y="307.584" style="stroke: #000000; stroke-width: 0.6"/>
      </g>
     </g>
    </g>
    <g id="xtick_7">
     <g id="line2d_7">
      <g>
       <use xlink:href="#m08c82ef862" x="96" y="307.584" style="stroke: #000000; stroke-width: 0.6"/>
      </g>
     </g>
    </g>
    <g id="xtick_8">
     <g id="line2d_8">
      <g>
       <use xlink:href="#m08c82ef862" x="122.88" y="307.584" style="stroke: #000000; stroke-width: 0.6"/>
      </g>
     </g>
    </g>
    <g id="xtick_9">
     <g id="line2d_9">
      <g>
       <use xlink:href="#m08c82ef862" x="149.76" y="307.584" style="stroke: #000000; stroke-width: 0.6"/>
      </g>
     </g>
    </g>
    <g id="xtick_10">
     <g id="line2d_10">
      <g>
       <use xlink:href="#m08c82ef862" x="176.64" y="307.584" style="stroke: #000000; stroke-width: 0.6"/>
      </g>
     </g>
    </g>
    <g id="xtick_11">
     <g id="line2d_11">
      <g>
       <use xlink:href="#m08c82ef862" x="203.52" y="307.584" style="stroke: #000000; stroke-width: 0.6"/>
      </g>
     </g>
    </g>
    <g id="xtick_12">
     <g id="line2d_12">
      <g>
       <use xlink:href="#m08c82ef862" x="230.4" y="307.584" style="stroke: #000000; stroke-width: 0.6"/>
      </g>
     </g>
    </g>
    <g id="xtick_13">
     <g id="line2d_13">
      <g>
       <use xlink:href="#m08c82ef862" x="257.28" y="307.584" style="stroke: #000000; stroke-width: 0.6"/>
      </g>
     </g>
    </g>
    <g id="xtick_14">
     <g id="line2d_14">
      <g>
       <use xlink:href="#m08c82ef862" x="284.16" y="307.584" style="stroke: #000000; stroke-width: 0.6"/>
      </g>
     </g>
    </g>
    <g id="xtick_15">
     <g id="line2d_15">
      <g>
       <use xlink:href="#m08c82ef862" x="311.04" y="307.584" style="stroke: #000000; stroke-width: 0.6"/>
      </g>
     </g>
    </g>
    <g id="xtick_16">
     <g id="line2d_16">
      <g>
       <use xlink:href="#m08c82ef862" x="337.92" y="307.584" style="stroke: #000000; stroke-width: 0.6"/>
      </g>
     </g>
    </g>
    <g id="xtick_17">
     <g id="line2d_17">
      <g>
       <use xlink:href="#m08c82ef862" x="364.8" y="307.584" style="stroke: #000000; stroke-width: 0.6"/>
      </g>
     </g>
    </g>
    <g id="xtick_18">
     <g id="line2d_18">
      <g>
       <use xlink:href="#m08c82ef862" x="391.68" y="307.584" style="stroke: #000000; stroke-width: 0.6"/>
      </g>
     </g>
    </g>
    <g id="text_4">
     <!-- date -->
     <g transform="translate(224.885 347.058375) scale(0.1 -0.1)">
      <defs>
       <path id="DejaVuSans-64" d="M 2906 2969 
L 2906 4863 
L 3481 4863 
L 3481 0 
L 2906 0 
L 2906 525 
Q 2725 213 2448 61 
Q 2172 -91 1784 -91 
Q 1150 -91 751 415 
Q 353 922 353 1747 
Q 353 2572 751 3078 
Q 1150 3584 1784 3584 
Q 2172 3584 2448 3432 
Q 2725 3281 2906 2969 
z
M 947 1747 
Q 947 1113 1208 752 
Q 1469 391 1925 391 
Q 2381 391 2643 752 
Q 2906 1113 2906 1747 
Q 2906 2381 2643 2742 
Q 2381 3103 1925 3103 
Q 1469 3103 1208 2742 
Q 947 2381 947 1747 
z
" transform="scale(0.015625)"/>
       <path id="DejaVuSans-74" d="M 1172 4494 
L 1172 3500 
L 2356 3500 
L 2356 3053 
L 1172 3053 
L 1172 1153 
Q 1172 725 1289 603 
Q 1406 481 1766 481 
L 2356 481 
L 2356 0 
L 1766 0 
Q 1100 0 847 248 
Q 594 497 594 1153 
L 594 3053 
L 172 3053 
L 172 3500 
L 594 3500 
L 594 4494 
L 1172 4494 
z
" transform="scale(0.015625)"/>
      </defs>
      <use xlink:href="#DejaVuSans-64"/>
      <use xlink:href="#DejaVuSans-61" x="63.476562"/>
      <use xlink:href="#DejaVuSans-74" x="124.755859"/>
      <use xlink:href="#DejaVuSans-65" x="163.964844"/>
     </g>
    </g>
   </g>
   <g id="matplotlib.axis_2">
    <g id="ytick_1">
     <g id="line2d_19">
      <defs>
       <path id="mf3a67cee45" d="M 0 0 
L -3.5 0 
" style="stroke: #000000; stroke-width: 0.8"/>
      </defs>
      <g>
       <use xlink:href="#mf3a67cee45" x="57.6" y="296.476653" style="stroke: #000000; stroke-width: 0.8"/>
      </g>
     </g>
     <g id="text_5">
      <!-- 0.0 -->
      <g transform="translate(34.696875 300.275872) scale(0.1 -0.1)">
       <defs>
        <path id="DejaVuSans-2e" d="M 684 794 
L 1344 794 
L 1344 0 
L 684 0 
L 684 794 
z
" transform="scale(0.015625)"/>
       </defs>
       <use xlink:href="#DejaVuSans-30"/>
       <use xlink:href="#DejaVuSans-2e" x="63.623047"/>
       <use xlink:href="#DejaVuSans-30" x="95.410156"/>
      </g>
     </g>
    </g>
    <g id="ytick_2">
     <g id="line2d_20">
      <g>
       <use xlink:href="#mf3a67cee45" x="57.6" y="248.90407" style="stroke: #000000; stroke-width: 0.8"/>
      </g>
     </g>
     <g id="text_6">
      <!-- 0.5 -->
      <g transform="translate(34.696875 252.703289) scale(0.1 -0.1)">
       <defs>
        <path id="DejaVuSans-35" d="M 691 4666 
L 3169 4666 
L 3169 4134 
L 1269 4134 
L 1269 2991 
Q 1406 3038 1543 3061 
Q 1681 3084 1819 3084 
Q 2600 3084 3056 2656 
Q 3513 2228 3513 1497 
Q 3513 744 3044 326 
Q 2575 -91 1722 -91 
Q 1428 -91 1123 -41 
Q 819 9 494 109 
L 494 744 
Q 775 591 1075 516 
Q 1375 441 1709 441 
Q 2250 441 2565 725 
Q 2881 1009 2881 1497 
Q 2881 1984 2565 2268 
Q 2250 2553 1709 2553 
Q 1456 2553 1204 2497 
Q 953 2441 691 2322 
L 691 4666 
z
" transform="scale(0.015625)"/>
       </defs>
       <use xlink:href="#DejaVuSans-30"/>
       <use xlink:href="#DejaVuSans-2e" x="63.623047"/>
       <use xlink:href="#DejaVuSans-35" x="95.410156"/>
      </g>
     </g>
    </g>
    <g id="ytick_3">
     <g id="line2d_21">
      <g>
       <use xlink:href="#mf3a67cee45" x="57.6" y="201.331487" style="stroke: #000000; stroke-width: 0.8"/>
      </g>
     </g>
     <g id="text_7">
      <!-- 1.0 -->
      <g transform="translate(34.696875 205.130706) scale(0.1 -0.1)">
       <use xlink:href="#DejaVuSans-31"/>
       <use xlink:href="#DejaVuSans-2e" x="63.623047"/>
       <use xlink:href="#DejaVuSans-30" x="95.410156"/>
      </g>
     </g>
    </g>
    <g id="ytick_4">
     <g id="line2d_22">
      <g>
       <use xlink:href="#mf3a67cee45" x="57.6" y="153.758904" style="stroke: #000000; stroke-width: 0.8"/>
      </g>
     </g>
     <g id="text_8">
      <!-- 1.5 -->
      <g transform="translate(34.696875 157.558123) scale(0.1 -0.1)">
       <use xlink:href="#DejaVuSans-31"/>
       <use xlink:href="#DejaVuSans-2e" x="63.623047"/>
       <use xlink:href="#DejaVuSans-35" x="95.410156"/>
      </g>
     </g>
    </g>
    <g id="ytick_5">
     <g id="line2d_23">
      <g>
       <use xlink:href="#mf3a67cee45" x="57.6" y="106.186321" style="stroke: #000000; stroke-width: 0.8"/>
      </g>
     </g>
     <g id="text_9">
      <!-- 2.0 -->
      <g transform="translate(34.696875 109.98554) scale(0.1 -0.1)">
       <use xlink:href="#DejaVuSans-32"/>
       <use xlink:href="#DejaVuSans-2e" x="63.623047"/>
       <use xlink:href="#DejaVuSans-30" x="95.410156"/>
      </g>
     </g>
    </g>
    <g id="ytick_6">
     <g id="line2d_24">
      <g>
       <use xlink:href="#mf3a67cee45" x="57.6" y="58.613738" style="stroke: #000000; stroke-width: 0.8"/>
      </g>
     </g>
     <g id="text_10">
      <!-- 2.5 -->
      <g transform="translate(34.696875 62.412957) scale(0.1 -0.1)">
       <use xlink:href="#DejaVuSans-32"/>
       <use xlink:href="#DejaVuSans-2e" x="63.623047"/>
       <use xlink:href="#DejaVuSans-35" x="95.410156"/>
      </g>
     </g>
    </g>
    <g id="text_11">
     <!-- 1e6 -->
     <g transform="translate(57.6 38.472) scale(0.1 -0.1)">
      <defs>
       <path id="DejaVuSans-36" d="M 2113 2584 
Q 1688 2584 1439 2293 
Q 1191 2003 1191 1497 
Q 1191 994 1439 701 
Q 1688 409 2113 409 
Q 2538 409 2786 701 
Q 3034 994 3034 1497 
Q 3034 2003 2786 2293 
Q 2538 2584 2113 2584 
z
M 3366 4563 
L 3366 3988 
Q 3128 4100 2886 4159 
Q 2644 4219 2406 4219 
Q 1781 4219 1451 3797 
Q 1122 3375 1075 2522 
Q 1259 2794 1537 2939 
Q 1816 3084 2150 3084 
Q 2853 3084 3261 2657 
Q 3669 2231 3669 1497 
Q 3669 778 3244 343 
Q 2819 -91 2113 -91 
Q 1303 -91 875 529 
Q 447 1150 447 2328 
Q 447 3434 972 4092 
Q 1497 4750 2381 4750 
Q 2619 4750 2861 4703 
Q 3103 4656 3366 4563 
z
" transform="scale(0.015625)"/>
      </defs>
      <use xlink:href="#DejaVuSans-31"/>
      <use xlink:href="#DejaVuSans-65" x="63.623047"/>
      <use xlink:href="#DejaVuSans-36" x="125.146484"/>
     </g>
    </g>
   </g>
   <g id="line2d_25">
    <path d="M 57.6 292.830596 
L 61.44 292.802337 
L 65.28 292.782547 
L 69.12 292.760378 
L 72.96 292.726792 
L 76.8 292.693301 
L 80.64 292.652579 
L 84.48 292.610144 
L 88.32 292.569707 
L 92.16 292.538214 
L 96 292.504343 
L 99.84 292.449159 
L 103.68 292.389883 
L 107.52 292.329371 
L 111.36 292.277041 
L 115.2 292.225282 
L 119.04 292.173333 
L 122.88 292.12538 
L 126.72 292.055828 
L 130.56 291.984184 
L 134.4 291.922054 
L 138.24 291.855548 
L 142.08 291.789707 
L 145.92 291.736236 
L 149.76 291.676294 
L 153.6 291.595136 
L 157.44 291.526441 
L 161.28 291.448231 
L 165.12 291.369546 
L 168.96 291.304277 
L 172.8 291.252803 
L 176.64 291.188866 
L 180.48 291.114177 
L 184.32 291.049097 
L 188.16 290.954618 
L 192 290.87717 
L 195.84 290.814184 
L 199.68 290.760522 
L 203.52 290.710285 
L 207.36 290.649963 
L 211.2 290.602486 
L 215.04 290.518092 
L 218.88 290.445687 
L 222.72 290.383938 
L 226.56 290.337887 
L 230.4 290.291171 
L 234.24 290.210678 
L 238.08 290.14598 
L 241.92 290.080995 
L 245.76 290.016868 
L 249.6 289.964252 
L 253.44 289.930761 
L 257.28 289.891276 
L 261.12 289.831525 
L 264.96 289.778909 
L 268.8 289.730861 
L 272.64 289.68719 
L 276.48 289.662357 
L 280.32 289.633337 
L 284.16 289.590998 
L 288 289.528297 
L 291.84 289.473589 
L 295.68 289.420783 
L 299.52 289.376826 
L 303.36 289.342193 
L 307.2 289.309178 
L 311.04 289.276067 
L 314.88 289.214318 
L 318.72 289.162178 
L 322.56 289.122788 
L 326.4 289.063798 
L 330.24 289.017843 
L 334.08 288.983496 
L 337.92 288.940871 
L 341.76 288.882261 
L 345.6 288.834023 
L 349.44 288.784357 
L 353.28 288.738973 
L 357.12 288.693779 
L 360.96 288.657909 
L 364.8 288.622039 
L 368.64 288.564667 
L 372.48 288.514811 
L 376.32 288.46524 
L 380.16 288.420332 
L 384 288.373901 
L 387.84 288.345452 
L 391.68 288.305491 
L 395.52 288.254018 
L 399.36 288.209585 
L 403.2 288.162774 
L 407.04 288.117389 
L 410.88 288.077333 
L 414.72 288.054784 
" clip-path="url(#p8ed0365450)" style="fill: none; stroke: #1f77b4; stroke-width: 1.5; stroke-linecap: square"/>
   </g>
   <g id="line2d_26">
    <path d="M 57.6 295.488 
L 61.44 295.479247 
L 65.28 295.476392 
L 69.12 295.46155 
L 72.96 295.456983 
L 76.8 295.434909 
L 80.64 295.419591 
L 84.48 295.407222 
L 88.32 295.400942 
L 92.16 295.394663 
L 96 295.391237 
L 99.84 295.355748 
L 103.68 295.335482 
L 107.52 295.31436 
L 111.36 295.296473 
L 115.2 295.286292 
L 119.04 295.280393 
L 122.88 295.255656 
L 126.72 295.226636 
L 130.56 295.20266 
L 134.4 295.17678 
L 138.24 295.152423 
L 142.08 295.138817 
L 145.92 295.129493 
L 149.76 295.100854 
L 153.6 295.06546 
L 157.44 295.029495 
L 161.28 294.988583 
L 165.12 294.953284 
L 168.96 294.937109 
L 172.8 294.925216 
L 176.64 294.8883 
L 180.48 294.842345 
L 184.32 294.796485 
L 188.16 294.754811 
L 192 294.709142 
L 195.84 294.684214 
L 199.68 294.669942 
L 203.52 294.627602 
L 207.36 294.57356 
L 211.2 294.529983 
L 215.04 294.472516 
L 218.88 294.424658 
L 222.72 294.392974 
L 226.56 294.373374 
L 230.4 294.323138 
L 234.24 294.236556 
L 238.08 294.167195 
L 241.92 294.095455 
L 245.76 294.026285 
L 249.6 293.986609 
L 253.44 293.964821 
L 257.28 293.897268 
L 261.12 293.803455 
L 264.96 293.726102 
L 268.8 293.686046 
L 272.64 293.662259 
L 276.48 293.627436 
L 280.32 293.59404 
L 284.16 293.513357 
L 288 293.406604 
L 291.84 293.31498 
L 295.68 293.261603 
L 299.52 293.227922 
L 303.36 293.196048 
L 307.2 293.166458 
L 311.04 293.075404 
L 314.88 292.979403 
L 318.72 292.876836 
L 322.56 292.767229 
L 326.4 292.668754 
L 330.24 292.614045 
L 334.08 292.581791 
L 337.92 292.499681 
L 341.76 292.395972 
L 345.6 292.281132 
L 349.44 292.175426 
L 353.28 292.128044 
L 357.12 292.055828 
L 360.96 292.01425 
L 364.8 291.979807 
L 368.64 291.814826 
L 372.48 291.718444 
L 376.32 291.636048 
L 380.16 291.556411 
L 384 291.541188 
L 387.84 291.500942 
L 391.68 291.421876 
L 395.52 291.375065 
L 399.36 291.291432 
L 403.2 291.159656 
L 407.04 291.121313 
L 410.88 291.043389 
L 414.72 291.03787 
" clip-path="url(#p8ed0365450)" style="fill: none; stroke: #ff7f0e; stroke-width: 1.5; stroke-linecap: square"/>
   </g>
   <g id="line2d_27">
    <path d="M 57.6 234.853603 
L 61.44 231.832173 
L 65.28 228.986857 
L 69.12 226.869592 
L 72.96 224.182597 
L 76.8 221.276103 
L 80.64 217.993404 
L 84.48 214.396726 
L 88.32 210.609093 
L 92.16 207.506028 
L 96 205.101805 
L 99.84 201.763161 
L 103.68 198.627081 
L 107.52 195.013753 
L 111.36 191.122126 
L 115.2 187.578063 
L 119.04 184.345316 
L 122.88 181.742906 
L 126.72 178.680087 
L 130.56 175.418511 
L 134.4 171.97654 
L 138.24 168.433429 
L 142.08 165.125802 
L 145.92 162.429674 
L 149.76 160.24828 
L 153.6 158.038344 
L 157.44 155.578651 
L 161.28 152.819346 
L 165.12 150.122742 
L 168.96 147.618997 
L 172.8 145.654629 
L 176.64 144.096532 
L 180.48 142.255759 
L 184.32 140.285397 
L 188.16 138.076222 
L 192 135.782272 
L 195.84 133.779276 
L 199.68 131.982269 
L 203.52 130.680778 
L 207.36 129.26911 
L 211.2 128.055533 
L 215.04 126.438255 
L 218.88 124.656567 
L 222.72 122.762988 
L 226.56 121.056369 
L 230.4 119.912249 
L 234.24 118.500389 
L 238.08 116.828879 
L 241.92 115.094097 
L 245.76 113.628767 
L 249.6 112.077425 
L 253.44 110.640542 
L 257.28 109.60641 
L 261.12 108.339457 
L 264.96 107.016178 
L 268.8 105.299854 
L 272.64 103.488575 
L 276.48 102.49859 
L 280.32 101.648278 
L 284.16 100.831837 
L 288 99.76526 
L 291.84 98.223718 
L 295.68 95.989995 
L 299.52 93.87682 
L 303.36 92.751729 
L 307.2 91.396386 
L 311.04 90.369008 
L 314.88 88.906152 
L 318.72 86.972231 
L 322.56 85.220038 
L 326.4 83.552238 
L 330.24 81.651618 
L 334.08 79.879539 
L 337.92 78.68737 
L 341.76 77.332313 
L 345.6 75.831588 
L 349.44 74.191 
L 353.28 72.654977 
L 357.12 71.103159 
L 360.96 69.909658 
L 364.8 69.070002 
L 368.64 68.071358 
L 372.48 66.780429 
L 376.32 65.443163 
L 380.16 64.146049 
L 384 62.877669 
L 387.84 61.771321 
L 391.68 60.956974 
L 395.52 59.949957 
L 399.36 58.504607 
L 403.2 57.138322 
L 407.04 55.847868 
L 410.88 54.638288 
L 414.72 53.568 
" clip-path="url(#p8ed0365450)" style="fill: none; stroke: #2ca02c; stroke-width: 1.5; stroke-linecap: square"/>
   </g>
   <g id="line2d_28">
    <path d="M 57.6 247.216576 
L 61.44 245.879406 
L 65.28 244.684763 
L 69.12 242.282157 
L 72.96 241.565429 
L 76.8 238.570259 
L 80.64 236.423689 
L 84.48 234.252476 
L 88.32 232.908836 
L 92.16 231.52828 
L 96 230.907743 
L 99.84 228.381924 
L 103.68 226.250577 
L 107.52 223.896876 
L 111.36 221.77885 
L 115.2 220.385924 
L 119.04 220.080223 
L 122.88 218.693006 
L 126.72 216.197254 
L 130.56 213.939744 
L 134.4 211.652359 
L 138.24 209.502745 
L 142.08 208.182891 
L 145.92 207.76644 
L 149.76 206.391117 
L 153.6 204.833591 
L 157.44 201.723581 
L 161.28 199.635049 
L 165.12 197.654222 
L 168.96 196.336937 
L 172.8 196.032758 
L 176.64 194.679699 
L 180.48 192.323333 
L 184.32 190.10883 
L 188.16 187.86426 
L 192 186.344792 
L 195.84 183.859029 
L 199.68 182.820995 
L 203.52 182.301883 
L 207.36 179.51765 
L 211.2 177.130553 
L 215.04 174.016071 
L 218.88 171.426505 
L 222.72 169.353102 
L 226.56 167.953612 
L 230.4 167.33983 
L 234.24 164.121545 
L 238.08 161.006112 
L 241.92 158.134726 
L 245.76 155.01111 
L 249.6 152.948458 
L 253.44 152.335342 
L 257.28 150.503227 
L 261.12 147.063444 
L 264.96 143.851533 
L 268.8 141.333326 
L 272.64 141.129716 
L 276.48 139.844875 
L 280.32 138.66517 
L 284.16 137.332758 
L 288 135.480662 
L 291.84 130.814362 
L 295.68 128.971686 
L 299.52 128.770263 
L 303.36 127.732896 
L 307.2 126.747572 
L 311.04 125.575384 
L 314.88 123.829565 
L 318.72 121.29271 
L 322.56 116.979494 
L 326.4 115.16441 
L 330.24 112.992816 
L 334.08 112.902619 
L 337.92 111.788849 
L 341.76 109.199949 
L 345.6 106.767468 
L 349.44 104.736785 
L 353.28 103.919202 
L 357.12 102.509436 
L 360.96 101.416789 
L 364.8 100.536411 
L 368.64 99.3725 
L 372.48 96.613005 
L 376.32 95.825489 
L 380.16 94.268343 
L 384 93.085688 
L 387.84 92.126815 
L 391.68 91.471551 
L 395.52 90.578423 
L 399.36 89.090733 
L 403.2 87.674688 
L 407.04 86.45388 
L 410.88 84.787127 
L 414.72 84.715958 
" clip-path="url(#p8ed0365450)" style="fill: none; stroke: #d62728; stroke-width: 1.5; stroke-linecap: square"/>
   </g>
   <g id="patch_3">
    <path d="M 57.6 307.584 
L 57.6 41.472 
" style="fill: none; stroke: #000000; stroke-width: 0.8; stroke-linejoin: miter; stroke-linecap: square"/>
   </g>
   <g id="patch_4">
    <path d="M 414.72 307.584 
L 414.72 41.472 
" style="fill: none; stroke: #000000; stroke-width: 0.8; stroke-linejoin: miter; stroke-linecap: square"/>
   </g>
   <g id="patch_5">
    <path d="M 57.6 307.584 
L 414.72 307.584 
" style="fill: none; stroke: #000000; stroke-width: 0.8; stroke-linejoin: miter; stroke-linecap: square"/>
   </g>
   <g id="patch_6">
    <path d="M 57.6 41.472 
L 414.72 41.472 
" style="fill: none; stroke: #000000; stroke-width: 0.8; stroke-linejoin: miter; stroke-linecap: square"/>
   </g>
   <g id="legend_1">
    <g id="patch_7">
     <path d="M 64.6 122.862625 
L 207.153125 122.862625 
Q 209.153125 122.862625 209.153125 120.862625 
L 209.153125 48.472 
Q 209.153125 46.472 207.153125 46.472 
L 64.6 46.472 
Q 62.6 46.472 62.6 48.472 
L 62.6 120.862625 
Q 62.6 122.862625 64.6 122.862625 
z
" style="fill: #ffffff; opacity: 0.8; stroke: #cccccc; stroke-linejoin: miter"/>
    </g>
    <g id="text_12">
     <!-- None,country -->
     <g transform="translate(102.121094 58.070438) scale(0.1 -0.1)">
      <defs>
       <path id="DejaVuSans-2c" d="M 750 794 
L 1409 794 
L 1409 256 
L 897 -744 
L 494 -744 
L 750 256 
L 750 794 
z
" transform="scale(0.015625)"/>
       <path id="DejaVuSans-75" d="M 544 1381 
L 544 3500 
L 1119 3500 
L 1119 1403 
Q 1119 906 1312 657 
Q 1506 409 1894 409 
Q 2359 409 2629 706 
Q 2900 1003 2900 1516 
L 2900 3500 
L 3475 3500 
L 3475 0 
L 2900 0 
L 2900 538 
Q 2691 219 2414 64 
Q 2138 -91 1772 -91 
Q 1169 -91 856 284 
Q 544 659 544 1381 
z
M 1991 3584 
L 1991 3584 
z
" transform="scale(0.015625)"/>
       <path id="DejaVuSans-72" d="M 2631 2963 
Q 2534 3019 2420 3045 
Q 2306 3072 2169 3072 
Q 1681 3072 1420 2755 
Q 1159 2438 1159 1844 
L 1159 0 
L 581 0 
L 581 3500 
L 1159 3500 
L 1159 2956 
Q 1341 3275 1631 3429 
Q 1922 3584 2338 3584 
Q 2397 3584 2469 3576 
Q 2541 3569 2628 3553 
L 2631 2963 
z
" transform="scale(0.015625)"/>
       <path id="DejaVuSans-79" d="M 2059 -325 
Q 1816 -950 1584 -1140 
Q 1353 -1331 966 -1331 
L 506 -1331 
L 506 -850 
L 844 -850 
Q 1081 -850 1212 -737 
Q 1344 -625 1503 -206 
L 1606 56 
L 191 3500 
L 800 3500 
L 1894 763 
L 2988 3500 
L 3597 3500 
L 2059 -325 
z
" transform="scale(0.015625)"/>
      </defs>
      <use xlink:href="#DejaVuSans-4e"/>
      <use xlink:href="#DejaVuSans-6f" x="74.804688"/>
      <use xlink:href="#DejaVuSans-6e" x="135.986328"/>
      <use xlink:href="#DejaVuSans-65" x="199.365234"/>
      <use xlink:href="#DejaVuSans-2c" x="260.888672"/>
      <use xlink:href="#DejaVuSans-63" x="292.675781"/>
      <use xlink:href="#DejaVuSans-6f" x="347.65625"/>
      <use xlink:href="#DejaVuSans-75" x="408.837891"/>
      <use xlink:href="#DejaVuSans-6e" x="472.216797"/>
      <use xlink:href="#DejaVuSans-74" x="535.595703"/>
      <use xlink:href="#DejaVuSans-72" x="574.804688"/>
      <use xlink:href="#DejaVuSans-79" x="615.917969"/>
     </g>
    </g>
    <g id="line2d_29">
     <path d="M 66.6 69.248563 
L 76.6 69.248563 
L 86.6 69.248563 
" style="fill: none; stroke: #1f77b4; stroke-width: 1.5; stroke-linecap: square"/>
    </g>
    <g id="text_13">
     <!-- (deaths, Italy) -->
     <g transform="translate(94.6 72.748563) scale(0.1 -0.1)">
      <defs>
       <path id="DejaVuSans-28" d="M 1984 4856 
Q 1566 4138 1362 3434 
Q 1159 2731 1159 2009 
Q 1159 1288 1364 580 
Q 1569 -128 1984 -844 
L 1484 -844 
Q 1016 -109 783 600 
Q 550 1309 550 2009 
Q 550 2706 781 3412 
Q 1013 4119 1484 4856 
L 1984 4856 
z
" transform="scale(0.015625)"/>
       <path id="DejaVuSans-68" d="M 3513 2113 
L 3513 0 
L 2938 0 
L 2938 2094 
Q 2938 2591 2744 2837 
Q 2550 3084 2163 3084 
Q 1697 3084 1428 2787 
Q 1159 2491 1159 1978 
L 1159 0 
L 581 0 
L 581 4863 
L 1159 4863 
L 1159 2956 
Q 1366 3272 1645 3428 
Q 1925 3584 2291 3584 
Q 2894 3584 3203 3211 
Q 3513 2838 3513 2113 
z
" transform="scale(0.015625)"/>
       <path id="DejaVuSans-73" d="M 2834 3397 
L 2834 2853 
Q 2591 2978 2328 3040 
Q 2066 3103 1784 3103 
Q 1356 3103 1142 2972 
Q 928 2841 928 2578 
Q 928 2378 1081 2264 
Q 1234 2150 1697 2047 
L 1894 2003 
Q 2506 1872 2764 1633 
Q 3022 1394 3022 966 
Q 3022 478 2636 193 
Q 2250 -91 1575 -91 
Q 1294 -91 989 -36 
Q 684 19 347 128 
L 347 722 
Q 666 556 975 473 
Q 1284 391 1588 391 
Q 1994 391 2212 530 
Q 2431 669 2431 922 
Q 2431 1156 2273 1281 
Q 2116 1406 1581 1522 
L 1381 1569 
Q 847 1681 609 1914 
Q 372 2147 372 2553 
Q 372 3047 722 3315 
Q 1072 3584 1716 3584 
Q 2034 3584 2315 3537 
Q 2597 3491 2834 3397 
z
" transform="scale(0.015625)"/>
       <path id="DejaVuSans-20" transform="scale(0.015625)"/>
       <path id="DejaVuSans-49" d="M 628 4666 
L 1259 4666 
L 1259 0 
L 628 0 
L 628 4666 
z
" transform="scale(0.015625)"/>
       <path id="DejaVuSans-6c" d="M 603 4863 
L 1178 4863 
L 1178 0 
L 603 0 
L 603 4863 
z
" transform="scale(0.015625)"/>
       <path id="DejaVuSans-29" d="M 513 4856 
L 1013 4856 
Q 1481 4119 1714 3412 
Q 1947 2706 1947 2009 
Q 1947 1309 1714 600 
Q 1481 -109 1013 -844 
L 513 -844 
Q 928 -128 1133 580 
Q 1338 1288 1338 2009 
Q 1338 2731 1133 3434 
Q 928 4138 513 4856 
z
" transform="scale(0.015625)"/>
      </defs>
      <use xlink:href="#DejaVuSans-28"/>
      <use xlink:href="#DejaVuSans-64" x="39.013672"/>
      <use xlink:href="#DejaVuSans-65" x="102.490234"/>
      <use xlink:href="#DejaVuSans-61" x="164.013672"/>
      <use xlink:href="#DejaVuSans-74" x="225.292969"/>
      <use xlink:href="#DejaVuSans-68" x="264.501953"/>
      <use xlink:href="#DejaVuSans-73" x="327.880859"/>
      <use xlink:href="#DejaVuSans-2c" x="379.980469"/>
      <use xlink:href="#DejaVuSans-20" x="411.767578"/>
      <use xlink:href="#DejaVuSans-49" x="443.554688"/>
      <use xlink:href="#DejaVuSans-74" x="473.046875"/>
      <use xlink:href="#DejaVuSans-61" x="512.255859"/>
      <use xlink:href="#DejaVuSans-6c" x="573.535156"/>
      <use xlink:href="#DejaVuSans-79" x="601.318359"/>
      <use xlink:href="#DejaVuSans-29" x="660.498047"/>
     </g>
    </g>
    <g id="line2d_30">
     <path d="M 66.6 83.926688 
L 76.6 83.926688 
L 86.6 83.926688 
" style="fill: none; stroke: #ff7f0e; stroke-width: 1.5; stroke-linecap: square"/>
    </g>
    <g id="text_14">
     <!-- (deaths, Germany) -->
     <g transform="translate(94.6 87.426688) scale(0.1 -0.1)">
      <defs>
       <path id="DejaVuSans-47" d="M 3809 666 
L 3809 1919 
L 2778 1919 
L 2778 2438 
L 4434 2438 
L 4434 434 
Q 4069 175 3628 42 
Q 3188 -91 2688 -91 
Q 1594 -91 976 548 
Q 359 1188 359 2328 
Q 359 3472 976 4111 
Q 1594 4750 2688 4750 
Q 3144 4750 3555 4637 
Q 3966 4525 4313 4306 
L 4313 3634 
Q 3963 3931 3569 4081 
Q 3175 4231 2741 4231 
Q 1884 4231 1454 3753 
Q 1025 3275 1025 2328 
Q 1025 1384 1454 906 
Q 1884 428 2741 428 
Q 3075 428 3337 486 
Q 3600 544 3809 666 
z
" transform="scale(0.015625)"/>
       <path id="DejaVuSans-6d" d="M 3328 2828 
Q 3544 3216 3844 3400 
Q 4144 3584 4550 3584 
Q 5097 3584 5394 3201 
Q 5691 2819 5691 2113 
L 5691 0 
L 5113 0 
L 5113 2094 
Q 5113 2597 4934 2840 
Q 4756 3084 4391 3084 
Q 3944 3084 3684 2787 
Q 3425 2491 3425 1978 
L 3425 0 
L 2847 0 
L 2847 2094 
Q 2847 2600 2669 2842 
Q 2491 3084 2119 3084 
Q 1678 3084 1418 2786 
Q 1159 2488 1159 1978 
L 1159 0 
L 581 0 
L 581 3500 
L 1159 3500 
L 1159 2956 
Q 1356 3278 1631 3431 
Q 1906 3584 2284 3584 
Q 2666 3584 2933 3390 
Q 3200 3197 3328 2828 
z
" transform="scale(0.015625)"/>
      </defs>
      <use xlink:href="#DejaVuSans-28"/>
      <use xlink:href="#DejaVuSans-64" x="39.013672"/>
      <use xlink:href="#DejaVuSans-65" x="102.490234"/>
      <use xlink:href="#DejaVuSans-61" x="164.013672"/>
      <use xlink:href="#DejaVuSans-74" x="225.292969"/>
      <use xlink:href="#DejaVuSans-68" x="264.501953"/>
      <use xlink:href="#DejaVuSans-73" x="327.880859"/>
      <use xlink:href="#DejaVuSans-2c" x="379.980469"/>
      <use xlink:href="#DejaVuSans-20" x="411.767578"/>
      <use xlink:href="#DejaVuSans-47" x="443.554688"/>
      <use xlink:href="#DejaVuSans-65" x="521.044922"/>
      <use xlink:href="#DejaVuSans-72" x="582.568359"/>
      <use xlink:href="#DejaVuSans-6d" x="621.931641"/>
      <use xlink:href="#DejaVuSans-61" x="719.34375"/>
      <use xlink:href="#DejaVuSans-6e" x="780.623047"/>
      <use xlink:href="#DejaVuSans-79" x="844.001953"/>
      <use xlink:href="#DejaVuSans-29" x="903.181641"/>
     </g>
    </g>
    <g id="line2d_31">
     <path d="M 66.6 98.604813 
L 76.6 98.604813 
L 86.6 98.604813 
" style="fill: none; stroke: #2ca02c; stroke-width: 1.5; stroke-linecap: square"/>
    </g>
    <g id="text_15">
     <!-- (confirmed, Italy) -->
     <g transform="translate(94.6 102.104813) scale(0.1 -0.1)">
      <defs>
       <path id="DejaVuSans-66" d="M 2375 4863 
L 2375 4384 
L 1825 4384 
Q 1516 4384 1395 4259 
Q 1275 4134 1275 3809 
L 1275 3500 
L 2222 3500 
L 2222 3053 
L 1275 3053 
L 1275 0 
L 697 0 
L 697 3053 
L 147 3053 
L 147 3500 
L 697 3500 
L 697 3744 
Q 697 4328 969 4595 
Q 1241 4863 1831 4863 
L 2375 4863 
z
" transform="scale(0.015625)"/>
       <path id="DejaVuSans-69" d="M 603 3500 
L 1178 3500 
L 1178 0 
L 603 0 
L 603 3500 
z
M 603 4863 
L 1178 4863 
L 1178 4134 
L 603 4134 
L 603 4863 
z
" transform="scale(0.015625)"/>
      </defs>
      <use xlink:href="#DejaVuSans-28"/>
      <use xlink:href="#DejaVuSans-63" x="39.013672"/>
      <use xlink:href="#DejaVuSans-6f" x="93.994141"/>
      <use xlink:href="#DejaVuSans-6e" x="155.175781"/>
      <use xlink:href="#DejaVuSans-66" x="218.554688"/>
      <use xlink:href="#DejaVuSans-69" x="253.759766"/>
      <use xlink:href="#DejaVuSans-72" x="281.542969"/>
      <use xlink:href="#DejaVuSans-6d" x="320.90625"/>
      <use xlink:href="#DejaVuSans-65" x="418.318359"/>
      <use xlink:href="#DejaVuSans-64" x="479.841797"/>
      <use xlink:href="#DejaVuSans-2c" x="543.318359"/>
      <use xlink:href="#DejaVuSans-20" x="575.105469"/>
      <use xlink:href="#DejaVuSans-49" x="606.892578"/>
      <use xlink:href="#DejaVuSans-74" x="636.384766"/>
      <use xlink:href="#DejaVuSans-61" x="675.59375"/>
      <use xlink:href="#DejaVuSans-6c" x="736.873047"/>
      <use xlink:href="#DejaVuSans-79" x="764.65625"/>
      <use xlink:href="#DejaVuSans-29" x="823.835938"/>
     </g>
    </g>
    <g id="line2d_32">
     <path d="M 66.6 113.282938 
L 76.6 113.282938 
L 86.6 113.282938 
" style="fill: none; stroke: #d62728; stroke-width: 1.5; stroke-linecap: square"/>
    </g>
    <g id="text_16">
     <!-- (confirmed, Germany) -->
     <g transform="translate(94.6 116.782938) scale(0.1 -0.1)">
      <use xlink:href="#DejaVuSans-28"/>
      <use xlink:href="#DejaVuSans-63" x="39.013672"/>
      <use xlink:href="#DejaVuSans-6f" x="93.994141"/>
      <use xlink:href="#DejaVuSans-6e" x="155.175781"/>
      <use xlink:href="#DejaVuSans-66" x="218.554688"/>
      <use xlink:href="#DejaVuSans-69" x="253.759766"/>
      <use xlink:href="#DejaVuSans-72" x="281.542969"/>
      <use xlink:href="#DejaVuSans-6d" x="320.90625"/>
      <use xlink:href="#DejaVuSans-65" x="418.318359"/>
      <use xlink:href="#DejaVuSans-64" x="479.841797"/>
      <use xlink:href="#DejaVuSans-2c" x="543.318359"/>
      <use xlink:href="#DejaVuSans-20" x="575.105469"/>
      <use xlink:href="#DejaVuSans-47" x="606.892578"/>
      <use xlink:href="#DejaVuSans-65" x="684.382812"/>
      <use xlink:href="#DejaVuSans-72" x="745.90625"/>
      <use xlink:href="#DejaVuSans-6d" x="785.269531"/>
      <use xlink:href="#DejaVuSans-61" x="882.681641"/>
      <use xlink:href="#DejaVuSans-6e" x="943.960938"/>
      <use xlink:href="#DejaVuSans-79" x="1007.339844"/>
      <use xlink:href="#DejaVuSans-29" x="1066.519531"/>
     </g>
    </g>
   </g>
  </g>
 </g>
 <defs>
  <clipPath id="p8ed0365450">
   <rect x="57.6" y="41.472" width="357.12" height="266.112"/>
  </clipPath>
 </defs>
</svg>
